HIERARCHY
ROOT Hips
{
	OFFSET 0.00000 0.00000 0.00000
	CHANNELS 6 Xposition Yposition Zposition Zrotation Yrotation Xrotation 
	JOINT LHipJoint
	{
		OFFSET 0 0 0
		CHANNELS 3 Zrotation Yrotation Xrotation
		JOINT LeftUpLeg
		{
			OFFSET 1.26600 -1.82114 0.91038
			CHANNELS 3 Zrotation Yrotation Xrotation
			JOINT LeftLeg
			{
				OFFSET 2.50076 -6.87080 0.00000
				CHANNELS 3 Zrotation Yrotation Xrotation
				JOINT LeftFoot
				{
					OFFSET 2.57364 -7.07102 0.00000
					CHANNELS 3 Zrotation Yrotation Xrotation
					JOINT LeftToeBase
					{
						OFFSET 0.13572 -0.37290 1.97004
						CHANNELS 3 Zrotation Yrotation Xrotation
						End Site
						{
							OFFSET 0.00000 -0.00000 1.01383
						}
					}
				}
			}
		}
	}
	JOINT RHipJoint
	{
		OFFSET 0 0 0
		CHANNELS 3 Zrotation Yrotation Xrotation
		JOINT RightUpLeg
		{
			OFFSET -1.20803 -1.82114 0.91038
			CHANNELS 3 Zrotation Yrotation Xrotation
			JOINT RightLeg
			{
				OFFSET -2.54916 -7.00377 0.00000
				CHANNELS 3 Zrotation Yrotation Xrotation
				JOINT RightFoot
				{
					OFFSET -2.56374 -7.04382 0.00000
					CHANNELS 3 Zrotation Yrotation Xrotation
					JOINT RightToeBase
					{
						OFFSET -0.23520 -0.64621 2.09921
						CHANNELS 3 Zrotation Yrotation Xrotation
						End Site
						{
							OFFSET -0.00000 -0.00000 1.10065
						}
					}
				}
			}
		}
	}
	JOINT LowerBack
	{
		OFFSET 0 0 0
		CHANNELS 3 Zrotation Yrotation Xrotation
		JOINT Spine
		{
			OFFSET 0.05492 2.10797 -0.12074
			CHANNELS 3 Zrotation Yrotation Xrotation
			JOINT Spine1
			{
				OFFSET 0.04577 2.11592 -0.04483
				CHANNELS 3 Zrotation Yrotation Xrotation
				JOINT Neck
				{
					OFFSET 0 0 0
					CHANNELS 3 Zrotation Yrotation Xrotation
					JOINT Neck1
					{
						OFFSET -0.10759 1.80167 0.15770
						CHANNELS 3 Zrotation Yrotation Xrotation
						JOINT Head
						{
							OFFSET 0.09237 1.77509 -0.40848
							CHANNELS 3 Zrotation Yrotation Xrotation
							End Site
							{
								OFFSET 0.03805 1.84093 -0.15754
							}
						}
					}
				}
				JOINT LeftShoulder
				{
					OFFSET 0 0 0
					CHANNELS 3 Zrotation Yrotation Xrotation
					JOINT LeftArm
					{
						OFFSET 3.42372 1.09575 -0.28209
						CHANNELS 3 Zrotation Yrotation Xrotation
						JOINT LeftForeArm
						{
							OFFSET 4.95681 -0.00000 0.00000
							CHANNELS 3 Zrotation Yrotation Xrotation
							JOINT LeftHand
							{
								OFFSET 3.40915 -0.00000 0.00000
								CHANNELS 3 Zrotation Yrotation Xrotation
								JOINT LeftFingerBase
								{
									OFFSET 0 0 0
									CHANNELS 3 Zrotation Yrotation Xrotation
									JOINT LeftHandIndex1
									{
										OFFSET 0.61640 -0.00000 0.00000
										CHANNELS 3 Zrotation Yrotation Xrotation
										End Site
										{
											OFFSET 0.49696 -0.00000 0.00000
										}
									}
								}
								JOINT LThumb
								{
									OFFSET 0 0 0
									CHANNELS 3 Zrotation Yrotation Xrotation
									End Site
									{
										OFFSET 0.50455 -0.00000 0.50455
									}
								}
							}
						}
					}
				}
				JOINT RightShoulder
				{
					OFFSET 0 0 0
					CHANNELS 3 Zrotation Yrotation Xrotation
					JOINT RightArm
					{
						OFFSET -3.24731 1.15872 -0.32221
						CHANNELS 3 Zrotation Yrotation Xrotation
						JOINT RightForeArm
						{
							OFFSET -5.35200 -0.00000 0.00000
							CHANNELS 3 Zrotation Yrotation Xrotation
							JOINT RightHand
							{
								OFFSET -3.43721 -0.00000 -0.00000
								CHANNELS 3 Zrotation Yrotation Xrotation
								JOINT RightFingerBase
								{
									OFFSET 0 0 0
									CHANNELS 3 Zrotation Yrotation Xrotation
									JOINT RightHandIndex1
									{
										OFFSET -0.72009 -0.00000 0.00000
										CHANNELS 3 Zrotation Yrotation Xrotation
										End Site
										{
											OFFSET -0.58056 -0.00000 0.00000
										}
									}
								}
								JOINT RThumb
								{
									OFFSET 0 0 0
									CHANNELS 3 Zrotation Yrotation Xrotation
									End Site
									{
										OFFSET -0.58942 -0.00000 0.58942
									}
								}
							}
						}
					}
				}
			}
		}
	}
}
MOTION
Frames: 9
Frame Time: 0.0169492
0.00 0.00 0.00 -164.8380 -29.3188 161.8130 0.0000 0.0000 0.0000 7.5674 2.9119 -48.3300 29.7809 17.5312 119.7817 -4.6388 -37.3319 0.4149 0.1530 -2.5207 -6.9472 0.0000 0.0000 0.0000 29.9844 -6.9828 -23.7527 -10.1042 -17.4680 59.8360 -2.0033 1.8664 -26.2666 -0.1461 -2.4631 6.7872 9.6712 0.9605 19.6833 7.3065 2.3890 5.3834 1.8916 0.5725 -4.9945 -12.9869 -4.0915 -8.5533 6.7017 -9.3575 36.2216 3.3683 -6.0597 14.9224 0.0000 0.0000 0.0000 -86.3747 13.9745 0.5606 25.4744 -36.6849 -8.5717 -0.0000 0.0000 -19.8094 30.0530 16.9256 9.5614 -7.1250 0.0000 -0.0000 2.1614 49.3381 0.2313 0.0000 0.0000 0.0000 68.0731 3.1304 -5.4283 -12.8924 21.1294 -2.4144 0.0000 0.0000 1.3714 -25.0001 8.0566 -3.7392 7.1250 -0.0000 -0.0000 1.3383 -21.1041 0.7669
0.00 0.00 0.00 -166.8370 -26.8165 164.9590 0.0000 0.0000 0.0000 -0.0207 -5.4956 -49.7354 24.4587 19.5165 103.1382 -3.5739 -33.0409 1.2565 0.4003 -4.0619 -11.2510 0.0000 0.0000 0.0000 29.0631 -4.8366 -24.7437 -10.4563 -17.6586 61.0027 -2.0728 2.1643 -26.6579 -0.0320 -1.1542 3.1732 9.4604 2.0503 19.5248 6.3670 3.8563 5.2118 0.6508 1.3472 -5.0045 -12.5451 -4.1474 -8.0913 8.5895 -10.8974 37.1434 3.8544 -6.5626 15.5902 0.0000 0.0000 0.0000 -89.7565 11.4781 6.4289 21.2339 -32.1004 -6.1738 -0.0000 0.0000 -14.1749 28.6718 16.6222 8.8907 -7.1250 0.0000 -0.0000 0.8346 48.7691 0.0776 0.0000 0.0000 0.0000 71.0719 3.3696 3.5768 -16.6609 26.4086 -3.9353 0.0000 -0.0000 -12.2415 -26.0679 8.6020 -4.1849 7.1250 -0.0000 -0.0000 0.5918 -20.4209 0.3481
0.00 0.00 0.00 -170.6660 -24.8002 168.8030 0.0000 0.0000 0.0000 -4.6812 -12.9659 -45.5182 17.8967 19.8936 83.8399 -3.0085 -29.1301 8.0941 0.1840 -2.7624 -7.6181 0.0000 0.0000 0.0000 25.6733 -3.8402 -24.7835 -9.9774 -17.3971 59.4129 -1.9463 4.4957 -25.3458 -0.2848 -3.4322 9.4843 7.1001 2.2233 18.7186 5.1491 3.6130 5.3037 0.7167 1.3327 -4.5948 -12.9163 -3.5018 -7.8096 8.6365 -10.0486 37.3179 4.0930 -6.3069 15.4959 -0.0000 -0.0000 0.0000 -94.3552 10.0974 8.1060 19.9301 -30.5580 -5.4958 -0.0000 0.0000 -7.6674 26.3621 12.9248 6.3253 -7.1250 0.0000 -0.0000 -0.8787 44.3439 0.0142 -0.0000 -0.0000 0.0000 73.1912 4.1138 12.5541 -22.0786 33.0657 -6.6287 0.0000 -0.0000 -9.2508 -18.1403 10.0654 -3.2772 7.1250 -0.0000 -0.0000 6.2987 -19.4332 3.8675
0.00 0.00 0.00 -172.6160 -19.6024 170.5520 0.0000 0.0000 0.0000 -6.2080 -15.7916 -36.4983 12.0346 18.4052 66.0985 -1.6443 -23.2045 16.9812 0.0154 0.8015 2.2029 0.0000 0.0000 0.0000 24.3898 -2.3765 -22.5167 -9.2479 -16.9646 56.9435 -1.9029 7.4579 -24.7651 -0.4185 -4.1522 11.5052 7.0019 2.9990 17.9839 3.8141 4.5162 5.5038 -0.8032 1.8388 -3.8583 -11.9283 -2.9621 -7.8022 7.6304 -9.1370 37.4649 3.6278 -5.9337 15.2896 0.0000 -0.0000 0.0000 -96.7753 9.2193 7.1490 18.4549 -28.7357 -4.7659 -0.0000 0.0000 -4.5978 23.4266 11.7500 5.0425 -7.1250 0.0000 -0.0000 -3.4002 42.7270 0.1910 0.0000 -0.0000 0.0000 76.5160 3.6881 19.4635 -27.8302 38.9594 -10.0167 0.0000 -0.0000 -2.8526 -17.1832 12.9624 -3.9679 7.1250 -0.0000 -0.0000 6.9866 -16.4984 4.7506
0.00 0.00 0.00 -129.0640 81.1903 231.1760 0.0000 0.0000 0.0000 -10.5087 -3.1486 -3.1207 7.7722 15.9492 51.7381 0.2757 -11.1697 19.3782 0.3579 3.8434 10.6365 0.0000 0.0000 0.0000 29.0422 0.9134 -24.0580 -3.1534 -10.9394 32.0756 -0.1636 7.7860 -8.4435 -0.5920 -4.9261 13.6978 4.7170 0.4368 7.1177 3.9820 1.1093 3.4473 1.3791 0.6548 -0.4210 -9.0082 -5.3136 -10.7256 4.6344 -5.2527 39.0593 2.9526 -2.2569 16.1564 0.0000 0.0000 0.0000 -87.5291 6.8463 25.3829 19.9221 -30.5484 -5.4917 -0.0000 0.0000 -3.8903 20.6677 18.4433 6.8055 -7.1250 0.0000 -0.0000 -7.3601 49.4558 -0.8126 0.0000 0.0000 0.0000 85.8589 -0.7756 14.0704 -16.2156 25.8121 -3.7394 0.0000 -0.0000 -10.7812 -20.1807 12.6216 -4.5917 7.1250 -0.0000 -0.0000 4.9059 -16.5934 3.3128
0.00 0.00 0.00 -67.0109 82.4135 294.0080 0.0000 0.0000 0.0000 -10.9415 -5.0218 -23.0647 6.3708 14.7783 46.4522 1.1556 -13.2047 -20.0175 0.0017 -0.2662 -0.7314 0.0000 0.0000 0.0000 29.5347 2.0628 -17.3729 -3.6601 -11.6938 34.6570 -0.3204 14.8505 -13.7043 -1.1047 -6.6783 18.7657 8.0315 2.1232 7.8689 3.8380 3.6531 3.1622 -0.8185 1.9327 -0.8770 -9.0338 -4.3731 -11.4114 3.8558 -3.4535 39.5653 2.9303 -1.6149 16.3957 0.0000 0.0000 0.0000 -88.3305 6.0358 25.8200 20.2697 -30.9659 -5.6695 -0.0000 0.0000 -3.8495 21.0594 17.9598 6.7711 -7.1250 0.0000 -0.0000 -6.8494 49.0125 -0.6807 0.0000 0.0000 0.0000 83.1687 7.9484 19.7297 -20.7694 31.5582 -5.9288 0.0000 -0.0000 -13.7731 -21.0510 10.6094 -4.0533 7.1250 -0.0000 -0.0000 4.2423 -18.6484 2.6704
0.00 0.00 0.00 -166.5920 63.7831 184.1480 0.0000 0.0000 0.0000 -11.5087 -8.7226 14.0237 5.1303 13.5290 41.3825 -1.8736 -29.9575 -9.1101 0.8370 5.8362 16.3098 0.0000 0.0000 0.0000 8.2289 -1.2263 -52.2373 -2.7868 -10.3416 30.0901 -1.2618 -16.2304 21.6005 -0.2292 -3.0814 8.5054 -2.9261 3.9323 12.0523 0.6685 5.2785 5.8608 1.6546 2.7365 -0.9147 -12.3028 -8.8879 -8.7576 9.2118 -11.2204 37.7377 4.5535 -4.5475 16.3300 -0.0000 0.0000 0.0000 -79.9136 6.0383 11.1047 23.3791 -34.5007 -7.3519 -0.0000 0.0000 -5.5972 22.3332 19.1461 7.6735 -7.1250 0.0000 -0.0000 -5.9315 50.4593 -0.8005 -0.0000 0.0000 0.0000 81.9758 -5.1796 10.5895 -17.7377 27.8200 -4.4262 0.0000 -0.0000 -7.6371 -21.1128 14.1729 -5.4008 7.1250 -0.0000 -0.0000 4.3231 -14.8624 3.0786
0.00 0.00 0.00 -167.4330 60.8399 185.1460 0.0000 0.0000 0.0000 -7.8753 -7.8564 22.2352 2.3171 9.4975 27.3643 -1.9826 -27.7674 -4.6702 0.0625 1.6132 4.4377 0.0000 0.0000 0.0000 6.3825 -1.4070 -50.4393 -2.7962 -10.3575 30.1424 -2.2163 -21.6112 28.8086 -0.9955 -6.3496 17.8023 -2.4203 3.2855 11.6097 1.0939 4.3842 4.5798 1.9095 2.2724 -1.9681 -13.2255 -9.2798 -9.2070 9.7575 -11.7907 37.5151 4.8322 -4.8422 16.5650 -0.0000 0.0000 0.0000 -80.0271 8.9039 9.7936 23.4470 -34.5740 -7.3904 -0.0000 0.0000 -6.0923 23.3267 18.0819 7.6232 -7.1250 0.0000 -0.0000 -4.6828 49.4961 -0.5202 -0.0000 0.0000 0.0000 81.0291 -11.8941 12.3351 -19.6265 30.1897 -5.3422 0.0000 -0.0000 -7.9551 -22.0766 13.8533 -5.5466 7.1250 -0.0000 -0.0000 3.6496 -15.0984 2.5783
0.00 0.00 0.00 -169.9400 58.9268 185.5730 0.0000 0.0000 0.0000 -4.9838 -7.4136 25.6640 0.9300 6.1433 17.2007 -1.6845 -22.4169 11.7373 0.8121 5.7506 16.0626 0.0000 0.0000 0.0000 5.0870 -1.1286 -48.8142 -2.6763 -10.1516 29.4689 -2.2036 -24.5340 29.7269 -1.5840 -7.9398 22.5314 -2.3697 2.6843 10.6105 0.8603 3.4930 3.0691 1.7646 1.8074 -2.9325 -13.3092 -9.3393 -9.3935 9.3735 -11.7064 37.6004 4.6854 -4.8539 16.6148 0.0000 0.0000 0.0000 -79.6399 11.3886 8.0655 23.2958 -34.4107 -7.3048 -0.0000 0.0000 -6.2175 24.0788 17.9316 7.8339 -7.1250 0.0000 -0.0000 -3.9130 49.4563 -0.4306 0.0000 0.0000 0.0000 81.5924 -16.0210 13.1987 -19.7912 30.3900 -5.4253 0.0000 -0.0000 -7.3383 -21.2955 14.0522 -5.4066 7.1250 -0.0000 -0.0000 4.1929 -14.9709 2.9756
